<svg xmlns="http://www.w3.org/2000/svg" viewBox="0 0 512 512" role="img" aria-labelledby="title desc">
  <title id="title">NeedAIHelp mark</title>
  <desc id="desc">A geometric N formed by a blue value structure and a turquoise AI data ribbon.</desc>
  <g fill="#2F6FED">
    <path d="M96 64h32l176 144v104l-80-64v168c0 18-14 32-32 32h-80c-18 0-32-14-32-32V96c0-18 14-32 32-32Z"/>
    <path d="M336 64h32c18 0 32 14 32 32v320c0 18-14 32-32 32h-32c-18 0-32-14-32-32V208l32 26V64Z"/>
  </g>
  <path d="M128 152 320 304v88L128 240Z" fill="#26C6B5" stroke="#fff" stroke-width="12" stroke-linejoin="round"/>
</svg>
